<?xml version="1.0" standalone="no"?>
<!DOCTYPE svg PUBLIC "-//W3C//DTD SVG 20010904//EN"
 "http://www.w3.org/TR/2001/REC-SVG-20010904/DTD/svg10.dtd">
<svg version="1.0" xmlns="http://www.w3.org/2000/svg"
 width="460.000000pt" height="345.000000pt" viewBox="0 0 460.000000 345.000000"
 preserveAspectRatio="xMidYMid meet">

<g transform="translate(0.000000,345.000000) scale(0.100000,-0.100000)"
fill="#000000" stroke="none">
<path d="M1732 2559 c-130 -17 -250 -98 -302 -204 -20 -42 -24 -65 -24 -140 0
-79 3 -97 27 -143 39 -75 98 -127 195 -174 l84 -41 -29 -18 c-32 -20 -84 -88
-231 -300 -55 -80 -121 -167 -147 -193 -43 -45 -151 -106 -187 -106 -9 0 -20
-5 -23 -10 -4 -7 60 -10 197 -8 l203 3 130 192 c149 220 260 355 326 396 30
18 66 30 103 34 l57 6 -3 -255 c-3 -225 -5 -257 -21 -281 -25 -39 -73 -66
-129 -73 -117 -16 -25 -24 262 -24 171 0 310 4 310 8 0 4 -25 13 -56 20 -82
17 -121 45 -135 95 -6 24 -12 137 -13 267 -1 222 -1 225 20 228 25 4 128 -103
396 -413 l173 -200 225 -3 c127 -1 220 1 215 6 -6 5 -43 15 -83 22 -111 18
-132 38 -522 479 -118 133 -218 249 -222 256 -9 16 322 343 442 436 93 73 143
101 208 118 88 24 42 31 -208 31 -137 0 -250 -4 -250 -9 0 -4 20 -16 45 -25
25 -10 52 -27 60 -39 24 -34 18 -88 -14 -138 -52 -83 -366 -401 -463 -470
l-30 -22 4 269 c3 264 3 270 28 319 27 54 65 80 133 90 20 3 37 10 37 15 0 12
-697 11 -788 -1z m316 -46 c59 -43 62 -62 62 -362 l0 -274 -92 6 c-260 16
-398 134 -398 338 0 147 98 265 255 305 66 17 140 12 173 -13z"/>
</g>
</svg>
